<svg width="105" height="167" viewBox="0 0 105 167" fill="none" xmlns="http://www.w3.org/2000/svg">
<path d="M97.4274 80.1065L95.5472 79.4246C97.4274 80.1065 97.4274 80.1066 97.4274 80.1067L97.4272 80.107L97.4269 80.108L97.4255 80.1119L97.42 80.1268L97.3989 80.185L97.316 80.412C97.243 80.6117 97.1348 80.9069 96.9934 81.2903C96.7107 82.0571 96.2953 83.177 95.7636 84.592C94.7005 87.4214 93.1721 91.4319 91.3093 96.1609L97.4274 80.1065ZM97.4274 80.1065L98.4001 77.4246H95.5472H9.67303H6.86263L7.78343 80.0799L9.67303 79.4246M97.4274 80.1065L9.67303 79.4246M9.67303 79.4246L7.78344 80.0799L7.78345 80.08L7.78349 80.0801L7.78358 80.0803L7.78386 80.0811L7.78481 80.0839L7.78827 80.0938L7.80136 80.1314L7.85205 80.276C7.89663 80.4028 7.96271 80.5898 8.04961 80.8334L9.67303 79.4246ZM87.298 106.162L87.2979 106.163C85.2703 111.108 83.036 116.401 80.6949 121.698C79.2544 124.958 77.7741 128.215 76.2763 131.399L76.2754 131.401C72.2568 139.92 68.0738 147.945 64.1628 153.891C62.2113 156.857 60.2798 159.381 58.4218 161.198C56.6391 162.942 54.5912 164.37 52.4069 164.451L52.4066 164.451C49.9083 164.543 47.5735 162.83 45.588 160.777C43.4975 158.615 41.3165 155.569 39.1187 151.994C34.7128 144.828 30.0375 135.201 25.6952 125.376C17.0018 105.706 9.52212 84.9625 8.0497 80.8336L87.298 106.162ZM87.298 106.162C88.7534 102.61 90.1035 99.2358 91.3093 96.1611L87.298 106.162Z" fill="#DDBEA9" stroke="#201D1D" stroke-width="4"/>
<path d="M55.1779 44.9082L55.178 44.9082C62.3019 46.4527 69.5753 47.3876 76.8985 47.7003L76.8987 47.7003C78.545 47.7704 80.4351 47.7789 82.2383 47.4588C84.0415 47.1386 85.9274 46.4609 87.4028 45.0231C89.1175 43.3519 89.7199 41.1461 90.0958 39.4894C90.6857 36.8889 91.1705 33.5281 89.6365 30.4801C88.3984 28.0199 86.0984 26.3085 84.1863 25.0111C82.7827 24.0587 81.3244 23.1452 79.9002 22.2531C79.764 22.1678 79.6282 22.0827 79.4928 21.9978C77.9268 21.0162 76.4056 20.0542 74.9645 19.0445C72.0729 17.0185 69.6438 14.8935 68.021 12.2966L66.3249 13.3565L68.021 12.2966C67.6966 11.7775 67.395 11.2244 67.0745 10.6209C67.0169 10.5126 66.9584 10.4018 66.8989 10.2893C66.6368 9.79349 66.3562 9.2627 66.0613 8.74744C65.3301 7.46981 64.4095 6.09968 63.0303 4.96986L63.0302 4.96981C61.2033 3.47335 58.4837 2.55645 55.9019 2.18956C53.3274 1.82371 50.4393 1.94082 48.2524 2.95711L46.3942 3.82068L47.3025 5.65744C47.5029 6.06262 47.8513 6.46491 48.0493 6.69228C48.3063 6.98718 48.6301 7.33689 48.963 7.69603L48.989 7.72406C49.6693 8.4581 50.4427 9.29237 51.1255 10.1338C51.7739 10.9327 52.2301 11.6064 52.459 12.1007C50.986 12.9463 49.0898 13.296 46.7175 13.7197C46.6908 13.7245 46.664 13.7293 46.6371 13.7341C44.2277 14.1643 41.251 14.6957 38.9298 16.4925L40.1541 18.074L38.9298 16.4925C35.5538 19.1058 34.8034 23.4306 35.6358 26.945C36.4504 30.3838 38.5866 33.3402 40.4461 35.847C41.7364 37.5866 43.2503 39.5953 45.3587 41.1338C48.2949 43.2763 51.9629 44.2109 55.1779 44.9082Z" fill="#DEAAFF" stroke="#201D1D" stroke-width="4"/>
<path d="M19.1162 40.2908L21.0181 40.9093L19.1162 40.2908C17.9663 43.8268 16.6695 48.1695 17.8279 52.4507C19.3734 58.1627 24.8515 62.0988 30.3475 63.9434C35.8659 65.7956 41.8284 65.9949 47.3266 66.177L76.3854 67.1394C80.0872 67.262 83.5224 67.3983 86.6409 68.4098C86.9328 68.5045 87.2547 68.615 87.5977 68.7327C88.7197 69.1177 90.0679 69.5804 91.3334 69.8224C93.0359 70.1479 95.1271 70.1999 96.9591 68.9091C98.6222 67.7374 99.2612 65.9132 99.6383 64.7568C100.91 60.8569 101.807 56.0768 99.8229 51.7082C97.5583 46.723 92.1679 43.7266 87.0538 42.3455C83.1412 41.2888 79.0001 40.9564 75.0839 40.6419C73.9085 40.5476 72.7536 40.4549 71.631 40.3447C66.5954 39.8502 61.6174 38.9763 56.7511 37.7329C52.6279 36.6791 48.8336 35.369 46.1479 33.0119L44.8287 34.5151L46.1479 33.0119C45.424 32.3765 44.7682 31.6541 44.055 30.8403C43.9604 30.7324 43.8644 30.6224 43.7669 30.5106C43.153 29.807 42.4801 29.0358 41.7464 28.3148L40.4129 29.6718L41.7464 28.3148C39.2035 25.8159 36.4934 24.6786 33.7508 24.8172C31.0752 24.9523 28.7307 26.2853 26.8186 27.9807C23.0307 31.3395 20.2868 36.6913 19.1162 40.2908Z" fill="#DEAAFF" stroke="#201D1D" stroke-width="4"/>
<path d="M24.5361 51.2214L24.7372 53.2081L24.5361 51.2214C23.1748 51.3592 22.2631 51.3825 21.5813 51.3933C21.5125 51.3944 21.4422 51.3953 21.3706 51.3961C20.8156 51.4028 20.1825 51.4104 19.5984 51.5393C18.8097 51.7133 18.19 52.0693 17.5537 52.5382C17.0172 52.9335 16.3502 53.5013 15.4767 54.2447C15.4659 54.2538 15.4551 54.263 15.4443 54.2722C13.8839 54.9395 12.0827 56.0418 10.4648 57.213C8.73807 58.463 7.04931 59.9151 5.9783 61.2016C3.9112 63.6847 2.58381 66.6226 2.1529 69.7354C1.7218 72.8495 2.20698 76.0033 3.5485 78.8841C4.88877 81.7621 7.03043 84.2551 9.73865 86.1398C14.6238 89.5396 20.8686 90.6379 26.5787 91.0028C32.1721 91.3602 37.7714 91.1142 43.2295 90.8745L43.2595 90.8732L91.7947 88.7415C93.2257 88.6786 94.9147 88.5705 96.5005 88.1809C98.0878 87.7909 99.7743 87.0719 101.019 85.6365C102.913 83.4534 102.884 80.6241 102.544 78.5783C101.287 70.9984 94.924 64.5092 86.9867 62.297C84.0406 61.4758 80.9728 61.2213 78.1487 60.987L78.095 60.9826L57.2893 59.2563C54.4612 59.0217 51.7977 58.7955 49.257 58.1831C46.3921 57.4925 43.6961 56.3361 40.843 55.1122C39.7903 54.6607 38.7163 54.2 37.6045 53.7501C33.6144 52.1356 29.2785 50.7414 24.5361 51.2214Z" fill="#DEAAFF" stroke="#201D1D" stroke-width="4"/>
<path d="M95.5472 79.4246C95.5472 79.4246 93.1649 85.9931 89.4474 95.4307C88.2452 98.4964 86.8989 101.862 85.4473 105.404C83.4251 110.336 81.1979 115.613 78.8655 120.889C77.4306 124.137 75.9569 127.379 74.4665 130.548C66.4553 147.532 57.9233 162.246 52.3331 162.452C39.7734 162.914 12.8698 88.3955 9.9334 80.1616C9.76162 79.6801 9.67303 79.4246 9.67303 79.4246H95.5472Z" fill="#DDBEA9"/>
<path opacity="0.1" d="M89.4472 95.4307C88.245 98.4964 86.8987 101.862 85.4471 105.404L52.1777 79.4246H68.9482L89.4472 95.4307Z" fill="black"/>
<path opacity="0.1" d="M78.8655 120.889C77.4306 124.137 75.9568 127.379 74.4664 130.548L9.9334 80.1616C9.76162 79.6801 9.67303 79.4246 9.67303 79.4246H25.762L78.8655 120.889Z" fill="black"/>
<path d="M54.0992 13.4257C50.1625 16.1909 43.9375 15.1453 40.1541 18.074C37.5662 20.0773 36.8758 23.5029 37.582 26.4841C38.2881 29.4652 40.1646 32.1105 42.0524 34.6555C43.3553 36.412 44.7069 38.1823 46.5376 39.5182C49.0972 41.3859 52.382 42.2553 55.6018 42.9536C62.6137 44.4739 69.7738 45.3942 76.9838 45.7021C80.1991 45.8391 83.8405 45.7021 86.0069 43.5908C87.2684 42.3613 87.7756 40.6765 88.1453 39.0469C88.7235 36.4979 89.0449 33.7536 87.85 31.3792C86.8678 29.4276 84.9773 27.9648 83.0633 26.6661C77.0598 22.5924 69.9891 19.2199 66.3249 13.3565C64.8685 11.026 63.9703 8.32527 61.7629 6.51702C58.8855 4.16011 52.4832 3.19638 49.0953 4.77083C49.6186 5.82899 56.4591 11.768 54.0992 13.4257Z" fill="#DEAAFF"/>
<path d="M21.0181 40.9093C19.8509 44.4985 18.7756 48.296 19.7584 51.9283C21.0543 56.7174 25.7895 60.304 30.9838 62.0474C36.1782 63.7908 41.8428 63.9943 47.3928 64.1781L76.4516 65.1405C80.1036 65.2615 83.8259 65.3942 87.258 66.5074C90.0868 67.4249 93.4489 68.9358 95.8072 67.2742C96.8768 66.5206 97.3573 65.3004 97.7369 64.1367C98.972 60.35 99.6629 56.1918 98.002 52.5354C96.0987 48.3455 91.4053 45.5923 86.5324 44.2763C81.6594 42.9603 76.4986 42.8321 71.4355 42.3351C66.2995 41.8307 61.2213 40.9394 56.2559 39.6706C52.1048 38.6097 47.8991 37.2099 44.8287 34.5151C43.1678 33.0574 41.9101 31.2797 40.3446 29.7413C31.3768 20.9285 23.2238 34.127 21.0181 40.9093Z" fill="#DEAAFF"/>
<path d="M14.6326 57.3984C11.8063 58.521 9.3547 60.2718 7.51538 62.4812C5.67606 64.6907 4.51135 67.2839 4.134 70.0096C3.75666 72.7354 4.17949 75.5014 5.36155 78.0398C6.54361 80.5781 8.44484 82.8027 10.8811 84.4982C15.3058 87.5775 21.0962 88.6484 26.7063 89.0068C32.1844 89.3569 37.6861 89.1161 43.1717 88.8751L91.707 86.7434C94.5519 86.6185 97.7719 86.3281 99.5086 84.326C100.805 82.8317 100.881 80.7708 100.571 78.9057C99.4582 72.1965 93.7453 66.2569 86.4497 64.2235C83.6982 63.4566 80.8013 63.214 77.9297 62.9757L57.124 61.2495C54.3221 61.017 51.5039 60.7819 48.7884 60.1274C40.5607 58.1442 33.2088 52.3539 24.7375 53.2112C18.9906 53.7929 14.2587 57.3606 10.0841 60.9109" fill="#DEAAFF"/>
<path opacity="0.1" d="M41.8066 28.3309C41.8066 28.3309 48.5973 39.2029 83.4298 43.5926Z" fill="black"/>
<path opacity="0.1" d="M22.5389 56.8064C22.5389 56.8064 35.1581 68.1251 87.2366 68.1251Z" fill="black"/>
<path d="M51.779 22.9267C53.6149 22.9267 55.1032 22.4868 55.1032 21.9442C55.1032 21.4015 53.6149 20.9616 51.779 20.9616C49.9431 20.9616 48.4548 21.4015 48.4548 21.9442C48.4548 22.4868 49.9431 22.9267 51.779 22.9267Z" fill="#7D1AAB"/>
<path d="M62.8595 29.3135C64.6954 29.3135 66.1837 28.8735 66.1837 28.3309C66.1837 27.7882 64.6954 27.3483 62.8595 27.3483C61.0236 27.3483 59.5353 27.7882 59.5353 28.3309C59.5353 28.8735 61.0236 29.3135 62.8595 29.3135Z" fill="#7D1AAB"/>
<path d="M75.6022 36.1915C77.438 36.1915 78.9263 35.7515 78.9263 35.2089C78.9263 34.6662 77.438 34.2263 75.6022 34.2263C73.7663 34.2263 72.278 34.6662 72.278 35.2089C72.278 35.7515 73.7663 36.1915 75.6022 36.1915Z" fill="#7D1AAB"/>
<path d="M31.2799 39.1392C33.1158 39.1392 34.6041 38.6993 34.6041 38.1566C34.6041 37.614 33.1158 37.174 31.2799 37.174C29.444 37.174 27.9557 37.614 27.9557 38.1566C27.9557 38.6993 29.444 39.1392 31.2799 39.1392Z" fill="#7D1AAB"/>
<path d="M59.5353 48.4736C61.3712 48.4736 62.8595 48.0337 62.8595 47.4911C62.8595 46.9484 61.3712 46.5085 59.5353 46.5085C57.6994 46.5085 56.2111 46.9484 56.2111 47.4911C56.2111 48.0337 57.6994 48.4736 59.5353 48.4736Z" fill="#7D1AAB"/>
<path d="M19.6453 67.6338C21.4812 67.6338 22.9694 67.1939 22.9694 66.6512C22.9694 66.1085 21.4812 65.6686 19.6453 65.6686C17.8094 65.6686 16.3211 66.1085 16.3211 66.6512C16.3211 67.1939 17.8094 67.6338 19.6453 67.6338Z" fill="#7D1AAB"/>
<path d="M40.6984 49.4562C42.5343 49.4562 44.0226 49.0163 44.0226 48.4736C44.0226 47.931 42.5343 47.4911 40.6984 47.4911C38.8626 47.4911 37.3743 47.931 37.3743 48.4736C37.3743 49.0163 38.8626 49.4562 40.6984 49.4562Z" fill="#7D1AAB"/>
<path d="M27.9559 75.0031C29.7917 75.0031 31.28 74.5632 31.28 74.0205C31.28 73.4779 29.7917 73.038 27.9559 73.038C26.12 73.038 24.6317 73.4779 24.6317 74.0205C24.6317 74.5632 26.12 75.0031 27.9559 75.0031Z" fill="#7D1AAB"/>
<path d="M49.5629 70.5815C51.3988 70.5815 52.887 70.1416 52.887 69.5989C52.887 69.0563 51.3988 68.6164 49.5629 68.6164C47.727 68.6164 46.2387 69.0563 46.2387 69.5989C46.2387 70.1416 47.727 70.5815 49.5629 70.5815Z" fill="#7D1AAB"/>
<path d="M62.5825 94.1633C64.5714 94.1633 66.1836 91.1938 66.1836 87.5309C66.1836 83.8679 64.5714 80.8985 62.5825 80.8985C60.5936 80.8985 58.9813 83.8679 58.9813 87.5309C58.9813 91.1938 60.5936 94.1633 62.5825 94.1633Z" fill="#DEAAFF"/>
<path d="M67.0148 96.6197C69.0036 96.6197 70.616 93.6503 70.616 89.9873C70.616 86.3244 69.0036 83.355 67.0148 83.355C65.0259 83.355 63.4136 86.3244 63.4136 89.9873C63.4136 93.6503 65.0259 96.6197 67.0148 96.6197Z" fill="#DEAAFF"/>
</svg>
